<svg xmlns="http://www.w3.org/2000/svg" xmlns:xlink="http://www.w3.org/1999/xlink" viewBox="0,0,256,256" width="48px" height="48px"><g fill="#9f64ec" fill-rule="nonzero" stroke="none" stroke-width="1" stroke-linecap="butt" stroke-linejoin="miter" stroke-miterlimit="10" stroke-dasharray="" stroke-dashoffset="0" font-family="none" font-weight="none" font-size="none" text-anchor="none" style="mix-blend-mode: normal"><g transform="scale(10.66667,10.66667)"><path d="M18.5,1c-1.5,0 -2.5,1.30078 -2.5,2.5c0,4.30078 5.89844,2.19922 7,5.5c-0.35937,-3.78516 -4.13281,-2.70312 -4.875,-5.15625c0.58984,1.75781 2.875,1.30859 2.875,-0.34375c0,-1.39844 -1,-2.5 -2.5,-2.5zM10,5c-0.55078,0 -1,0.44922 -1,1c0,0.51563 0.40234,0.91797 0.90625,0.96875c-0.81641,0.01953 -1.63672,0.3125 -2.3125,0.84375l-1.59375,1.1875h8l-1.59375,-1.1875c-0.67578,-0.53125 -1.49609,-0.82422 -2.3125,-0.84375c0.50391,-0.05078 0.90625,-0.45312 0.90625,-0.96875c0,-0.55078 -0.44922,-1 -1,-1zM0,10v4c0,1.64453 1.35547,3 3,3v-2c-0.55469,0 -1,-0.44531 -1,-1v-2h2.21875c-0.13281,0.42578 -0.21875,0.875 -0.21875,1.3125c0,1.82813 1.16016,3.37891 2.875,4.25c-0.53516,0.67969 -0.875,1.51172 -0.875,2.4375h8c0,-0.92578 -0.33984,-1.75781 -0.875,-2.4375c0.25391,-0.12891 0.49219,-0.28125 0.71875,-0.4375c0.01953,0.02344 0.03906,0.03906 0.0625,0.0625c3.80078,-2.89844 10.09375,-0.6875 10.09375,-7.1875h-2c0,1.69922 -1.19922,3 -3,3c-1.85547,0 -3.22266,-1.41016 -3.75,-2.0625c-0.21484,-0.32812 -0.46094,-0.64844 -0.75,-0.9375z"></path></g></g></svg>